<?xml version="1.0" standalone="no"?>
<!DOCTYPE svg PUBLIC "-//W3C//DTD SVG 20010904//EN"
 "http://www.w3.org/TR/2001/REC-SVG-20010904/DTD/svg10.dtd">
<svg version="1.0" xmlns="http://www.w3.org/2000/svg"
 width="446.000000pt" height="446.000000pt" viewBox="0 0 446.000000 446.000000"
 preserveAspectRatio="xMidYMid meet">
<metadata>
Created by potrace 1.14, written by Peter Selinger 2001-2017
</metadata>
<g transform="translate(0.000000,446.000000) scale(0.100000,-0.100000)"
fill="#000000" stroke="none">
<path d="M0 2230 l0 -2230 2230 0 2230 0 0 2230 0 2230 -2230 0 -2230 0 0
-2230z m2490 2080 c280 -40 408 -78 611 -182 151 -77 227 -132 305 -225 62
-72 78 -118 77 -223 0 -91 -13 -123 -87 -215 -82 -103 -74 -113 28 -36 123 93
250 117 354 65 61 -30 143 -109 193 -184 49 -74 154 -268 178 -327 31 -80 78
-268 110 -447 26 -140 31 -194 31 -320 0 -222 -35 -468 -89 -626 -109 -322
-252 -561 -403 -675 -61 -46 -64 -47 -125 -43 -55 3 -71 10 -134 53 -40 27
-90 64 -112 83 -22 18 -42 30 -45 28 -12 -12 12 -61 51 -103 l42 -46 0 -91 c0
-114 -20 -160 -117 -262 -114 -120 -242 -197 -480 -290 -168 -65 -432 -104
-711 -104 -309 0 -536 50 -852 187 -135 59 -222 113 -321 201 -113 99 -126
123 -122 227 4 101 20 132 115 236 41 44 72 83 70 86 -3 2 -45 -28 -94 -68
-108 -89 -139 -102 -218 -97 -179 11 -313 176 -460 568 -98 260 -120 404 -119
785 0 308 9 389 64 586 37 129 101 295 142 369 73 129 172 231 263 271 79 35
204 26 298 -23 22 -11 41 -17 44 -15 7 7 -16 47 -47 84 -76 86 -27 284 94 388
202 172 494 312 757 364 57 11 124 25 149 30 87 17 414 13 560 -9z"/>
<path d="M2080 3734 c-14 -2 -58 -9 -98 -15 -192 -28 -365 -100 -567 -234
-108 -72 -158 -114 -220 -181 -201 -219 -289 -358 -358 -569 -53 -159 -68
-249 -74 -440 -7 -226 10 -357 68 -530 46 -134 163 -362 236 -458 90 -119 283
-304 384 -369 39 -25 264 -123 338 -147 209 -68 464 -85 702 -46 287 48 599
219 814 447 169 179 273 361 348 608 54 178 81 460 59 605 -41 256 -163 563
-293 737 -68 91 -267 280 -354 338 -181 118 -387 202 -575 236 -83 14 -360 27
-410 18z m265 -74 c205 -19 359 -61 516 -140 217 -109 313 -256 227 -347 -42
-45 -151 -21 -190 41 -15 24 -18 41 -13 76 3 25 7 54 8 64 5 48 -217 143 -412
177 -238 40 -549 19 -731 -51 -139 -54 -229 -133 -216 -190 20 -85 20 -88 -12
-120 -25 -25 -39 -30 -77 -30 -84 0 -152 91 -131 174 20 80 224 215 431 284
178 60 389 81 600 62z m-29 -245 c57 -17 104 -61 128 -120 21 -50 29 -55 94
-55 132 0 222 -103 222 -255 0 -78 -12 -112 -68 -200 -83 -130 -213 -235 -309
-251 -35 -5 -44 -3 -72 22 -32 29 -40 57 -56 187 -6 48 -32 87 -58 87 -31 0
-47 -27 -57 -98 -12 -85 -27 -120 -70 -156 -69 -58 -164 -21 -312 122 -101 97
-143 157 -159 229 -16 66 0 130 47 200 46 67 95 91 202 100 l81 6 12 35 c16
47 84 121 134 143 50 23 171 25 241 4z m-1015 -284 c38 -38 40 -101 6 -152
-35 -52 -70 -65 -136 -51 -44 9 -58 9 -68 -1 -21 -21 -113 -246 -134 -327 -51
-196 -48 -558 6 -729 38 -121 110 -265 147 -296 29 -25 35 -26 103 -20 70 7
72 6 93 -20 42 -53 19 -159 -42 -196 -80 -49 -175 3 -252 137 -15 27 -35 58
-45 69 -40 46 -98 207 -128 360 -70 347 -7 786 152 1060 101 173 222 241 298
166z m1982 8 c30 -8 48 -25 98 -92 108 -146 179 -316 216 -520 22 -116 24
-436 4 -547 -69 -385 -258 -693 -408 -665 -74 14 -107 86 -73 162 15 35 28 48
65 64 39 17 51 19 81 9 74 -25 81 -16 154 175 23 61 50 128 59 150 24 60 23
567 -1 675 -33 149 -110 316 -164 359 -23 18 -35 20 -98 14 -67 -5 -74 -4 -94
18 -41 43 -22 144 33 187 30 24 70 28 128 11z m-238 -333 c45 -19 119 -88 139
-130 10 -21 16 -61 16 -103 0 -78 10 -93 85 -131 81 -40 118 -116 118 -237 -1
-129 -43 -214 -125 -252 -42 -20 -42 -21 -54 -93 -24 -142 -106 -218 -245
-228 -88 -6 -135 11 -237 88 -88 65 -112 90 -171 177 -35 51 -43 71 -44 112
-2 42 2 54 27 80 36 37 63 48 154 60 86 11 104 23 100 65 -3 33 -15 39 -133
66 -141 32 -180 105 -115 215 85 145 217 275 315 309 52 19 127 20 170 2z
m-1535 -37 c37 -6 87 -23 117 -40 71 -41 206 -176 236 -236 69 -138 34 -195
-140 -228 -89 -17 -119 -39 -109 -78 5 -22 15 -27 64 -37 103 -21 135 -34 174
-71 46 -43 49 -79 14 -154 -31 -66 -161 -222 -224 -268 -122 -90 -241 -89
-346 3 -55 49 -80 103 -82 180 0 36 -2 70 -3 77 0 7 -25 24 -55 38 -93 44
-138 134 -138 271 1 114 30 167 130 231 52 34 52 34 52 87 0 39 8 69 31 114
35 71 75 101 152 112 29 4 54 8 57 9 3 0 34 -4 70 -10z m832 -310 c59 -29 76
-46 105 -102 31 -62 39 -131 23 -198 -23 -96 -134 -179 -240 -179 -44 0 -119
26 -157 56 -50 38 -86 122 -87 199 0 49 5 71 32 121 27 50 43 67 84 89 27 15
62 31 76 36 40 13 115 3 164 -22z m-238 -572 c15 -15 29 -47 36 -83 35 -169
56 -202 106 -169 13 8 24 19 24 23 0 38 25 142 41 174 20 40 70 78 102 78 10
0 44 -12 75 -27 78 -38 269 -227 306 -302 60 -125 13 -265 -114 -339 -38 -23
-55 -27 -112 -25 -75 2 -78 0 -118 -81 -29 -59 -70 -90 -141 -105 -73 -16
-183 -14 -226 4 -51 21 -69 39 -106 107 -31 56 -33 58 -73 58 -53 0 -124 22
-165 50 -38 28 -77 109 -86 177 -8 68 20 166 65 232 58 85 161 190 216 222 67
38 136 40 170 6z m932 -563 c64 -30 92 -111 60 -172 -45 -86 -218 -199 -416
-272 -319 -118 -818 -76 -1148 95 -157 81 -222 156 -222 255 0 71 29 100 101
100 46 0 55 -4 85 -35 38 -40 50 -87 34 -129 -15 -39 -5 -63 38 -90 37 -23
156 -71 265 -107 121 -39 492 -53 648 -23 169 32 351 121 393 192 16 29 17 40
8 80 -12 56 -3 86 35 106 37 20 77 20 119 0z"/>
</g>
</svg>
